<svg width="150" height="150" viewBox="0 0 150 150" fill="none" xmlns="http://www.w3.org/2000/svg">
<path d="M135.937 47.9625C135.983 45.9191 135.467 43.9023 134.447 42.1312C133.377 40.3923 131.862 38.9701 130.059 38.0109C113.828 29.0484 97.5891 20.0906 81.3422 11.1375C79.3833 9.95904 77.1365 9.34578 74.8505 9.36564C72.5646 9.3855 70.3287 10.0377 68.3906 11.25C61.9312 14.9015 29.6016 32.6484 19.9641 37.9968C18.1301 38.9181 16.5991 40.3464 15.5529 42.1121C14.5068 43.8778 13.9895 45.9067 14.0625 47.9578V102.047C14.0151 104.044 14.5005 106.018 15.4687 107.766C16.5453 109.555 18.0921 111.014 19.9406 111.984C29.5781 117.333 61.9125 135.08 68.3719 138.731C70.3091 139.945 72.5445 140.599 74.8304 140.62C77.1164 140.642 79.3637 140.03 81.3234 138.853C97.5422 129.881 113.77 120.923 130.008 111.98C131.857 111.008 133.405 109.549 134.484 107.761C135.453 106.013 135.938 104.039 135.891 102.042V47.9625" fill="#8CB9B4"/>
<path d="M133.823 108.614C134.069 108.343 134.299 108.058 134.512 107.761C135.481 106.013 135.966 104.039 135.919 102.042V47.9625C135.964 45.9191 135.448 43.9023 134.428 42.1312C134.259 41.8547 134.011 41.639 133.819 41.3812L75 75L133.823 108.614Z" fill="#121113"/>
<path d="M133.823 108.614L75 75L16.1766 108.614C17.1712 110.009 18.4674 111.163 19.9687 111.989C29.6062 117.337 61.9406 135.084 68.4 138.736C70.3372 139.95 72.5726 140.603 74.8586 140.625C77.1445 140.646 79.3918 140.035 81.3516 138.858C97.5703 129.886 113.798 120.928 130.036 111.984C131.536 111.16 132.83 110.008 133.823 108.614Z" fill="#1B2929"/>
<path d="M91.875 84.4687C89.7869 88.1821 86.5298 91.1011 82.6107 92.7713C78.6915 94.4416 74.3301 94.7694 70.2053 93.7037C66.0806 92.6381 62.4237 90.2388 59.804 86.8793C57.1843 83.5197 55.7487 79.3884 55.7205 75.1282C55.6924 70.8681 57.0733 66.7182 59.6484 63.3243C62.2235 59.9304 65.8483 57.483 69.9587 56.363C74.069 55.243 78.4343 55.5131 82.3752 57.1314C86.3161 58.7497 89.6115 61.6254 91.7484 65.3109L108.694 55.5937C104.393 48.2123 97.7838 42.4498 89.8854 39.1939C81.9869 35.938 73.2371 35.3693 64.9837 37.5755C56.7303 39.7816 49.4312 44.6402 44.2108 51.4029C38.9904 58.1655 36.1382 66.4569 36.0937 75C36.0853 81.7743 37.8639 88.4311 41.25 94.2984C44.6789 100.225 49.6077 105.144 55.5408 108.561C61.4738 111.978 68.202 113.773 75.0488 113.765C81.8955 113.757 88.6195 111.946 94.5445 108.515C100.469 105.084 105.387 100.153 108.802 94.2187L91.875 84.4687Z" fill="white"/>
<path d="M112.856 72.8344H108.516V68.5172H104.18V72.8344H99.8391V77.161H104.18V81.4735H108.516V77.161H112.856V72.8344ZM129.136 72.8344H124.795V68.5172H120.455V72.8344H116.114V77.161H120.455V81.4735H124.795V77.161H129.136V72.8344Z" fill="white"/>
</svg>
