<svg width="150" height="150" viewBox="0 0 150 150" fill="none" xmlns="http://www.w3.org/2000/svg">
<path d="M0 2.948V118.836L75 147.052L150 118.836V2.948H0ZM35.9161 48.9532C46.6199 49.1201 54.0667 54.5022 54.1351 65.213H42.5262C42.5341 62.3544 41.3063 59.633 38.736 58.548C35.8361 57.5107 32.2123 58.0246 30.3498 60.4798C28.3554 63.4611 28.711 66.7984 28.711 70.3125C28.6011 74.9951 30.998 79.043 35.7514 79.0741C40.5674 78.8318 42.8558 76.4819 42.9016 72.1436H54.1351C53.8655 83.6474 46.0839 88.1097 35.9161 88.1562C23.0745 88.2343 16.3823 79.1905 16.2781 68.5456C16.2025 55.7082 25.2783 49.0577 35.9161 48.9532ZM76.5381 48.9532C84.2479 48.8719 93.0641 52.2274 93.2831 60.6445V61.2854H81.8848V61.0747C81.8144 58.3107 79.3051 57.2402 76.9959 57.2295C75.3221 57.2724 72.019 57.6322 71.9696 59.7014C72.391 62.9719 80.5144 63.568 83.0384 64.1875C88.9014 65.4331 94.158 68.7575 94.3269 74.9358C94.1367 84.9376 86.0209 88.1236 77.646 88.156C67.696 88.0849 59.0159 85.6931 58.9417 74.6702H70.4408C70.3335 78.6128 73.4109 79.442 76.5381 79.4492C78.4119 79.449 81.857 79.3814 81.8848 76.9224C81.5061 73.8911 73.1074 73.104 70.7061 72.4912C64.5044 70.9365 59.5986 67.7074 59.555 61.0746C59.9838 51.4241 68.646 48.983 76.5381 48.9532ZM116.309 48.9532C124.571 49.0226 133.044 52.1485 133.044 61.2854H121.655C121.757 58.41 119.109 57.2405 116.767 57.2296C115.093 57.2725 111.79 57.6324 111.74 59.7015C112.098 62.9305 120.316 63.5755 122.809 64.1876C126.892 65.1735 131.062 66.8271 133.045 70.5048C133.707 71.7049 134.052 73.1805 134.088 74.9359C133.905 84.9404 125.786 88.1238 117.408 88.1561C107.463 88.0875 98.7787 85.6872 98.7032 74.6704H110.202C110.14 77.1886 111.485 78.8876 113.782 79.2846C115.86 79.4799 121.617 80.1732 121.656 76.9226C121.203 73.8427 112.919 73.1146 110.477 72.4915C104.269 70.9358 99.3694 67.7139 99.3258 61.0749C99.7559 51.4176 108.407 48.9831 116.309 48.9532Z" fill="#EAEAEA"/>
</svg>
