<svg width="80" height="80" viewBox="0 0 80 80" fill="none" xmlns="http://www.w3.org/2000/svg">
<g clip-path="url(#clip0_550_2)">
<path d="M0 8.75C0 3.92 3.92 0 8.75 0H71.25C76.08 0 80 3.92 80 8.75V18.75C80 19.7446 79.6049 20.6984 78.9016 21.4017C78.1984 22.1049 77.2446 22.5 76.25 22.5C75.2554 22.5 74.3016 22.1049 73.5984 21.4017C72.8951 20.6984 72.5 19.7446 72.5 18.75V8.75C72.5 8.41848 72.3683 8.10054 72.1339 7.86612C71.8995 7.6317 71.5815 7.5 71.25 7.5H8.75C8.41848 7.5 8.10054 7.6317 7.86612 7.86612C7.6317 8.10054 7.5 8.41848 7.5 8.75V71.25C7.5 71.94 8.06 72.5 8.75 72.5H76.25C77.2446 72.5 78.1984 72.8951 78.9016 73.5984C79.6049 74.3016 80 75.2554 80 76.25C80 77.2446 79.6049 78.1984 78.9016 78.9016C78.1984 79.6049 77.2446 80 76.25 80H8.75C6.42936 80 4.20376 79.0781 2.56282 77.4372C0.921872 75.7962 0 73.5706 0 71.25L0 8.75ZM23.75 32.5C23.75 31.5054 24.1451 30.5516 24.8483 29.8483C25.5516 29.1451 26.5054 28.75 27.5 28.75H46.25C47.2446 28.75 48.1984 29.1451 48.9016 29.8483C49.6049 30.5516 50 31.5054 50 32.5C50 33.4946 49.6049 34.4484 48.9016 35.1516C48.1984 35.8549 47.2446 36.25 46.25 36.25H41.25V62.5C41.25 63.4946 40.8549 64.4484 40.1516 65.1516C39.4484 65.8549 38.4946 66.25 37.5 66.25C36.5054 66.25 35.5516 65.8549 34.8484 65.1516C34.1451 64.4484 33.75 63.4946 33.75 62.5V36.25H27.5C26.5054 36.25 25.5516 35.8549 24.8483 35.1516C24.1451 34.4484 23.75 33.4946 23.75 32.5ZM56.38 32.9C58.47 30.41 61.755 28.75 66.25 28.75C70.425 28.75 73.575 30.18 75.7 32.425C76.3585 33.152 76.706 34.108 76.6679 35.0881C76.6298 36.0683 76.2092 36.9945 75.4963 37.6681C74.7833 38.3418 73.8348 38.7094 72.8541 38.6919C71.8734 38.6745 70.9386 38.2736 70.25 37.575C69.7 36.995 68.6 36.25 66.25 36.25C63.75 36.25 62.65 37.09 62.12 37.725C61.5905 38.3686 61.2851 39.1673 61.25 40C61.25 40.52 61.465 41.5 62.12 42.275C62.655 42.91 63.745 43.75 66.25 43.75C66.63 43.75 66.995 43.805 67.34 43.91C70.655 44.38 73.16 45.86 74.87 47.9C76.84 50.25 77.5 53.02 77.5 55C77.5 56.98 76.84 59.75 74.87 62.1C72.78 64.59 69.495 66.25 65 66.25C60.825 66.25 57.675 64.82 55.55 62.575C54.8915 61.848 54.544 60.892 54.5821 59.9119C54.6202 58.9317 55.0408 58.0055 55.7537 57.3319C56.4667 56.6582 57.4151 56.2906 58.3959 56.3081C59.3766 56.3255 60.3114 56.7264 61 57.425C61.55 58.005 62.65 58.75 65 58.75C67.5 58.75 68.6 57.91 69.13 57.275C69.6595 56.6314 69.9649 55.8327 70 55C70 54.48 69.785 53.5 69.13 52.725C68.595 52.09 67.505 51.25 65 51.25C64.6308 51.2508 64.2634 51.1968 63.91 51.09C60.595 50.615 58.09 49.14 56.38 47.1C54.714 45.1056 53.7853 42.5985 53.75 40C53.75 38.02 54.41 35.25 56.38 32.9Z" fill="#EAEAEA"/>
</g>
<defs>
<clipPath id="clip0_550_2">
<rect width="80" height="80" fill="white"/>
</clipPath>
</defs>
</svg>
