<svg width="240" height="400" viewBox="0 0 240 400" fill="none" xmlns="http://www.w3.org/2000/svg">
<path opacity="0.4" d="M80 0C58.7827 0 38.4344 8.42854 23.4315 23.4315C8.42856 38.4344 0 58.7827 0 80V320C0 341.217 8.42856 361.566 23.4315 376.569C38.4344 391.571 58.7827 400 80 400H160C181.217 400 201.566 391.571 216.569 376.569C231.571 361.566 240 341.217 240 320V280H160V320H80V80H160V120H240V80C240 58.7827 231.571 38.4344 216.569 23.4315C201.566 8.42854 181.217 0 160 0H80Z" fill="#EAEAEA"/>
</svg>
