<svg width="256" height="256" viewBox="0 0 256 256" fill="none" xmlns="http://www.w3.org/2000/svg">
<path d="M232 81.856C232.077 78.3686 231.197 74.9267 229.456 71.904C227.629 68.9362 225.045 66.5089 221.968 64.872C194.267 49.576 166.552 34.288 138.824 19.008C135.481 16.9968 131.646 15.9502 127.745 15.9841C123.844 16.018 120.028 17.131 116.72 19.2C105.696 25.432 50.52 55.72 34.072 64.848C30.942 66.4202 28.3291 68.8579 26.5437 71.8714C24.7583 74.8849 23.8754 78.3475 24 81.848V174.16C23.9192 177.569 24.7475 180.937 26.4 183.92C28.2373 186.973 30.8771 189.464 34.032 191.12C50.48 200.248 105.664 230.536 116.688 236.768C119.994 238.839 123.809 239.955 127.711 239.992C131.612 240.029 135.447 238.985 138.792 236.976C166.472 221.664 194.168 206.376 221.88 191.112C225.035 189.453 227.677 186.964 229.52 183.912C231.172 180.929 232.001 177.561 231.92 174.152V81.856" fill="#659AD2"/>
<path d="M228.392 185.368C228.81 184.905 229.203 184.419 229.568 183.912C231.22 180.93 232.049 177.561 231.968 174.152V81.856C232.045 78.3686 231.165 74.9267 229.424 71.904C229.136 71.432 228.712 71.064 228.384 70.624L128 128L228.392 185.368Z" fill="#00599C"/>
<path d="M228.392 185.368L128 128L27.608 185.368C29.3056 187.749 31.5176 189.718 34.08 191.128C50.528 200.256 105.712 230.544 116.736 236.776C120.042 238.847 123.857 239.963 127.759 240C131.66 240.037 135.495 238.993 138.84 236.984C166.52 221.672 194.216 206.384 221.928 191.12C224.487 189.713 226.697 187.747 228.392 185.368Z" fill="#004482"/>
<path d="M156.8 144.16C153.236 150.498 147.678 155.479 140.989 158.33C134.3 161.18 126.857 161.74 119.817 159.921C112.778 158.102 106.537 154.008 102.066 148.274C97.5946 142.54 95.1444 135.49 95.0964 128.219C95.0483 120.948 97.4051 113.866 101.8 108.074C106.195 102.281 112.381 98.1044 119.396 96.1929C126.411 94.2814 133.861 94.7424 140.587 97.5044C147.313 100.266 152.937 105.174 156.584 111.464L185.504 94.88C178.163 82.2823 166.884 72.4477 153.404 66.8909C139.924 61.3342 124.991 60.3637 110.906 64.1289C96.8198 67.894 84.3627 76.1861 75.4531 87.7276C66.5436 99.2691 61.676 113.42 61.6 128C61.5856 139.562 64.621 150.922 70.4 160.936C76.252 171.05 84.6638 179.445 94.7896 185.277C104.915 191.109 116.398 194.172 128.083 194.158C139.768 194.145 151.244 191.054 161.356 185.199C171.468 179.343 179.86 170.928 185.688 160.8L156.8 144.16Z" fill="white"/>
<path d="M192.608 124.304H185.2V116.936H177.8V124.304H170.392V131.688H177.8V139.048H185.2V131.688H192.608V124.304ZM220.392 124.304H212.984V116.936H205.576V124.304H198.168V131.688H205.576V139.048H212.984V131.688H220.392V124.304Z" fill="white"/>
</svg>
