<svg width="100" height="100" viewBox="0 0 100 100" fill="none" xmlns="http://www.w3.org/2000/svg">
<g clip-path="url(#clip0_424_4)">
<path fill-rule="evenodd" clip-rule="evenodd" d="M50 8.33333C26.9881 8.33333 8.33333 26.9881 8.33333 50C8.33333 73.0119 26.9881 91.6667 50 91.6667C73.0119 91.6667 91.6667 73.0119 91.6667 50C91.6667 26.9881 73.0119 8.33333 50 8.33333ZM0 50C0 22.3858 22.3858 0 50 0C77.6142 0 100 22.3858 100 50C100 77.6142 77.6142 100 50 100C22.3858 100 0 77.6142 0 50Z" fill="#EAEAEA"/>
<path fill-rule="evenodd" clip-rule="evenodd" d="M39.9652 94.7325C39.5621 94.2123 39.5621 89.5777 39.9652 80.8292C35.6487 80.9784 32.9217 80.6788 31.784 79.9307C30.0771 78.8084 28.3685 75.3473 26.8523 72.9082C25.3362 70.469 21.9715 70.0834 20.6126 69.5382C19.2538 68.9927 18.9127 66.77 24.3569 68.4511C29.8008 70.1321 30.0665 74.7098 31.784 75.7802C33.5012 76.8507 37.6073 76.3823 39.4683 75.5248C41.3296 74.6673 41.1925 71.4746 41.5244 70.2098C41.944 69.0292 40.4652 68.7673 40.4327 68.7577C38.6156 68.7577 29.0706 66.6819 26.449 57.4388C23.8271 48.1959 27.2044 42.1544 29.006 39.5573C30.2073 37.8259 30.101 34.1359 28.6873 28.4869C33.8198 27.8311 37.7806 29.4465 40.5696 33.3336C40.5723 33.3559 44.226 31.1609 50.0006 31.1609C55.775 31.1609 57.8235 32.9488 59.4046 33.3336C60.9856 33.7184 62.25 26.5294 72.0142 28.4869C69.9756 32.4936 68.2685 37.5002 69.5714 39.5573C70.8746 41.6144 75.9885 48.1557 72.8471 57.4388C70.7529 63.6277 66.636 67.4007 60.4967 68.7577C59.7927 68.9823 59.4406 69.3448 59.4406 69.8448C59.4406 70.595 60.3925 70.6769 61.7635 74.1911C62.6777 76.5338 62.7437 83.225 61.9617 94.2646C59.9804 94.769 58.4392 95.1075 57.3377 95.2806C55.3848 95.5875 53.2644 95.7596 51.181 95.8261C49.0977 95.8925 48.3742 95.885 45.4937 95.6169C43.5737 95.4381 41.7308 95.1434 39.9652 94.7325Z" fill="#EAEAEA"/>
</g>
<defs>
<clipPath id="clip0_424_4">
<rect width="100" height="100" fill="white"/>
</clipPath>
</defs>
</svg>
