<svg width="256" height="256" viewBox="0 0 256 256" fill="none" xmlns="http://www.w3.org/2000/svg">
<path d="M0 160V96H16V117.333H37.3333V96H53.3333V160H37.3333V133.333H16V160H0ZM82.6667 160V112H64V96H117.333V112H98.6667V160H82.6667ZM128 160V106.667C128 103.644 129.024 101.109 131.072 99.0613C133.12 97.0133 135.652 95.9929 138.667 96H186.667C189.689 96 192.224 97.024 194.272 99.072C196.32 101.12 197.34 103.652 197.333 106.667V160H181.333V112H170.667V149.333H154.667V112H144V160H128ZM213.333 160V96H229.333V144H256V160H213.333Z" fill="#EAEAEA"/>
</svg>
