<svg width="118" height="64" viewBox="0 0 118 64" fill="none" xmlns="http://www.w3.org/2000/svg">
<path d="M16 64C11.5556 64 7.77602 62.4427 4.66136 59.328C1.54669 56.2134 -0.00708681 52.4374 2.42977e-05 48V37.3334H16V48H32V3.6909e-05H48V48C48 52.4445 46.4427 56.224 43.328 59.3387C40.2134 62.4534 36.4374 64.0071 32 64H16ZM74.6667 64C71.6445 64 69.1094 62.976 67.0614 60.928C65.0134 58.88 63.9929 56.3485 64 53.3334V42.6667H80V48H101.333V37.3334H74.6667C71.6445 37.3334 69.1094 36.3094 67.0614 34.2614C65.0134 32.2134 63.9929 29.6818 64 26.6667V10.6667C64 7.64448 65.024 5.10937 67.072 3.06137C69.12 1.01337 71.6516 -0.0070742 74.6667 3.6909e-05H106.667C109.689 3.6909e-05 112.224 1.02404 114.272 3.07204C116.32 5.12004 117.34 7.65159 117.333 10.6667V21.3334H101.333V16H80V26.6667H106.667C109.689 26.6667 112.224 27.6907 114.272 29.7387C116.32 31.7867 117.34 34.3183 117.333 37.3334V53.3334C117.333 56.3556 116.309 58.8907 114.261 60.9387C112.213 62.9867 109.682 64.0071 106.667 64H74.6667Z" fill="#EAEAEA"/>
</svg>
